<?xml version="1.0" encoding="UTF-8" standalone="no"?>
<!-- Created with Inkscape (http://www.inkscape.org/) -->

<svg
   xmlns:dc="http://purl.org/dc/elements/1.1/"
   xmlns:cc="http://creativecommons.org/ns#"
   xmlns:rdf="http://www.w3.org/1999/02/22-rdf-syntax-ns#"
   xmlns:svg="http://www.w3.org/2000/svg"
   xmlns="http://www.w3.org/2000/svg"
   xmlns:sodipodi="http://sodipodi.sourceforge.net/DTD/sodipodi-0.dtd"
   xmlns:inkscape="http://www.inkscape.org/namespaces/inkscape"
   width="744.09448819"
   height="1052.3622047"
   id="svg2"
   version="1.1"
   inkscape:version="0.48.3.1 r9886"
   sodipodi:docname="soapbox.pdf">
  <defs
     id="defs4">
    <inkscape:perspective
       sodipodi:type="inkscape:persp3d"
       inkscape:vp_x="-185.71429 : 761.89537 : 1"
       inkscape:vp_y="0 : 1000 : 0"
       inkscape:vp_z="548.3802 : 717.60967 : 1"
       inkscape:persp3d-origin="229.1901 : 413.64453 : 1"
       id="perspective3108" />
  </defs>
  <sodipodi:namedview
     id="base"
     pagecolor="#ffffff"
     bordercolor="#666666"
     borderopacity="1.0"
     inkscape:pageopacity="0.0"
     inkscape:pageshadow="2"
     inkscape:zoom="0.98994949"
     inkscape:cx="415.15665"
     inkscape:cy="609.31159"
     inkscape:document-units="px"
     inkscape:current-layer="layer1"
     showgrid="false"
     inkscape:window-width="1215"
     inkscape:window-height="776"
     inkscape:window-x="65"
     inkscape:window-y="24"
     inkscape:window-maximized="1"
     showguides="true"
     inkscape:guide-bbox="true" />
  <metadata
     id="metadata7">
    <rdf:RDF>
      <cc:Work
         rdf:about="">
        <dc:format>image/svg+xml</dc:format>
        <dc:type
           rdf:resource="http://purl.org/dc/dcmitype/StillImage" />
        <dc:title></dc:title>
      </cc:Work>
    </rdf:RDF>
  </metadata>
  <g
     inkscape:label="Layer 1"
     inkscape:groupmode="layer"
     id="layer1">
    <g
       sodipodi:type="inkscape:box3d"
       style="fill:none;stroke:none"
       id="g3110"
       inkscape:perspectiveID="#perspective3108"
       inkscape:corner0="0.52838552 : 0.63613649 : 0 : 1"
       inkscape:corner7="0.27593352 : 0.5043044 : 0.24333683 : 1">
      <path
         sodipodi:type="inkscape:box3dside"
         id="path3122"
         style="fill:#e9e9ff;fill-rule:evenodd;stroke:none"
         inkscape:box3dsidetype="11"
         d="m 149.29114,134.06008 55.66672,-25.98958 0,86.77329 -55.66672,13.62529 z" />
      <path
         sodipodi:type="inkscape:box3dside"
         id="path3112"
         style="fill:#353564;fill-rule:evenodd;stroke:none"
         inkscape:box3dsidetype="6"
         d="m 85.751505,102.1075 0,86.25578 63.539635,20.1058 0,-74.409 z" />
      <path
         sodipodi:type="inkscape:box3dside"
         id="path3114"
         style="fill:#4d4d9f;fill-rule:evenodd;stroke:none"
         inkscape:box3dsidetype="5"
         d="M 85.751505,102.1075 139.46283,64.839344 204.95786,108.0705 149.29114,134.06008 z" />
      <path
         sodipodi:type="inkscape:box3dside"
         id="path3120"
         style="fill:#afafde;fill-rule:evenodd;stroke:none"
         inkscape:box3dsidetype="13"
         d="m 85.751505,188.36328 53.711325,-20.20187 65.49503,26.68238 -55.66672,13.62529 z" />
      <path
         sodipodi:type="inkscape:box3dside"
         id="path3118"
         style="fill:#d7d7ff;fill-rule:evenodd;stroke:none"
         inkscape:box3dsidetype="14"
         d="m 139.46283,64.839344 0,103.322066 65.49503,26.68238 0,-86.77329 z" />
      <path
         sodipodi:type="inkscape:box3dside"
         id="path3116"
         style="fill:#8686bf;fill-rule:evenodd;stroke:none"
         inkscape:box3dsidetype="3"
         d="m 85.751505,102.1075 53.711325,-37.268156 0,103.322066 -53.711325,20.20187 z" />
    </g>
    <text
       xml:space="preserve"
       style="font-size:40px;font-style:normal;font-weight:normal;line-height:125%;letter-spacing:0px;word-spacing:0px;fill:#000000;fill-opacity:1;stroke:none;font-family:Sans"
       x="248.57143"
       y="99.505035"
       id="text3138"
       sodipodi:linespacing="125%"><tspan
         sodipodi:role="line"
         id="tspan3140"
         x="248.57143"
         y="99.505035">Soapbox</tspan><tspan
         sodipodi:role="line"
         x="248.57143"
         y="149.50504"
         id="tspan3142" /></text>
    <text
       xml:space="preserve"
       style="font-size:40px;font-style:normal;font-weight:normal;line-height:125%;letter-spacing:0px;word-spacing:0px;fill:#000000;fill-opacity:1;stroke:none;font-family:Sans"
       x="427.14285"
       y="95.219322"
       id="text3144"
       sodipodi:linespacing="125%"><tspan
         sodipodi:role="line"
         id="tspan3146"
         x="427.14285"
         y="95.219322" /><tspan
         sodipodi:role="line"
         id="tspan3148"
         x="427.14285"
         y="145.21933" /></text>
    <text
       xml:space="preserve"
       style="font-size:40px;font-style:normal;font-weight:normal;line-height:125%;letter-spacing:0px;word-spacing:0px;fill:#000000;fill-opacity:1;stroke:none;font-family:Sans"
       x="381.42856"
       y="143.79076"
       id="text3150"
       sodipodi:linespacing="125%"><tspan
         sodipodi:role="line"
         id="tspan3152"
         x="381.42856"
         y="143.79076">by Transbit</tspan></text>
    <rect
       style="fill:#0000ff;fill-rule:evenodd;stroke:#000000;stroke-width:1px;stroke-linecap:butt;stroke-linejoin:miter;stroke-opacity:1"
       id="rect3270"
       width="501.03568"
       height="547.50269"
       x="137.38075"
       y="312.93051" />
    <path
       style="fill:#a0a0a0;stroke:none"
       d="m 138.85924,586.79322 0,-272.74119 249.50767,0 249.50768,0 0,272.74119 0,272.74119 -249.50768,0 -249.50767,0 0,-272.74119 z"
       id="path3272"
       inkscape:connector-curvature="0" />
    <path
       style="fill:none;stroke:none"
       d="m 138.85924,586.79322 0,-272.74119 249.50767,0 249.50768,0 0,272.74119 0,272.74119 -249.50768,0 -249.50767,0 0,-272.74119 z"
       id="path3274"
       inkscape:connector-curvature="0" />
    <rect
       style="fill:#0000ff;fill-rule:evenodd;stroke:#000000;stroke-width:0.87990373px;stroke-linecap:butt;stroke-linejoin:miter;stroke-opacity:1"
       id="rect3286"
       width="186.99832"
       height="166.79527"
       x="165.60498"
       y="613.89587" />
    <rect
       style="fill:#0000ff;fill-rule:evenodd;stroke:#000000;stroke-width:1px;stroke-linecap:butt;stroke-linejoin:miter;stroke-opacity:1"
       id="rect3302"
       width="183.84776"
       height="216.17264"
       x="422.24377"
       y="611.93567" />
    <text
       xml:space="preserve"
       style="font-size:12px;font-style:normal;font-weight:normal;line-height:125%;letter-spacing:0px;word-spacing:0px;fill:#000000;fill-opacity:1;stroke:none;font-family:Sans"
       x="178.797"
       y="737.19458"
       id="text3310"
       sodipodi:linespacing="125%"><tspan
         sodipodi:role="line"
         id="tspan3312"
         x="178.797"
         y="737.19458">http://www.walmart.com/ip/</tspan><tspan
         sodipodi:role="line"
         x="178.797"
         y="752.19458"
         id="tspan3314">Merkury-Vertical-Flat-</tspan><tspan
         sodipodi:role="line"
         x="178.797"
         y="767.19458"
         id="tspan3316">Speakers-Black/19897256</tspan></text>
    <text
       xml:space="preserve"
       style="font-size:14px;font-style:normal;font-weight:normal;line-height:125%;letter-spacing:0px;word-spacing:0px;fill:#000000;fill-opacity:1;stroke:none;font-family:Sans"
       x="187.88837"
       y="634.15906"
       id="text3320"
       sodipodi:linespacing="125%"><tspan
         sodipodi:role="line"
         id="tspan3322"
         x="187.88837"
         y="634.15906">Merkury Vertical Flat</tspan><tspan
         sodipodi:role="line"
         x="187.88837"
         y="651.65906"
         id="tspan3324">Speakers, Black</tspan><tspan
         sodipodi:role="line"
         x="187.88837"
         y="669.15906"
         id="tspan3326" /><tspan
         sodipodi:role="line"
         x="187.88837"
         y="686.65906"
         id="tspan3328" /></text>
    <text
       xml:space="preserve"
       style="font-size:14px;font-style:normal;font-weight:normal;line-height:125%;letter-spacing:0px;word-spacing:0px;fill:#000000;fill-opacity:1;stroke:none;font-family:Sans"
       x="189.90868"
       y="674.56512"
       id="text3330"
       sodipodi:linespacing="125%"><tspan
         sodipodi:role="line"
         id="tspan3332"
         x="189.90868"
         y="674.56512">$5 maximum</tspan></text>
    <text
       xml:space="preserve"
       style="font-size:14px;font-style:normal;font-weight:normal;line-height:125%;letter-spacing:0px;word-spacing:0px;fill:#000000;fill-opacity:1;stroke:none;font-family:Sans"
       x="189.90868"
       y="700.8291"
       id="text3334"
       sodipodi:linespacing="125%"><tspan
         sodipodi:role="line"
         x="189.90868"
         y="700.8291"
         id="tspan3338" /></text>
    <text
       xml:space="preserve"
       style="font-size:14px;font-style:normal;font-weight:normal;line-height:125%;letter-spacing:0px;word-spacing:0px;fill:#000000;fill-opacity:1;stroke:none;font-family:Sans"
       x="199.00005"
       y="704.86969"
       id="text3342"
       sodipodi:linespacing="125%"><tspan
         sodipodi:role="line"
         id="tspan3344"
         x="199.00005"
         y="704.86969">Speaker 1</tspan></text>
    <text
       xml:space="preserve"
       style="font-size:14px;font-style:normal;font-weight:normal;line-height:125%;letter-spacing:0px;word-spacing:0px;fill:#000000;fill-opacity:1;stroke:none;font-family:Sans"
       x="478.81232"
       y="697.79865"
       id="text3346"
       sodipodi:linespacing="125%"><tspan
         sodipodi:role="line"
         id="tspan3348"
         x="478.81232"
         y="697.79865">Speaker 2</tspan></text>
    <text
       xml:space="preserve"
       style="font-size:14px;font-style:normal;font-weight:normal;line-height:125%;letter-spacing:0px;word-spacing:0px;fill:#000000;fill-opacity:1;stroke:none;font-family:Sans"
       x="473.76154"
       y="725.07275"
       id="text3350"
       sodipodi:linespacing="125%"><tspan
         sodipodi:role="line"
         id="tspan3352"
         x="473.76154"
         y="725.07275"> </tspan></text>
    <text
       xml:space="preserve"
       style="font-size:14px;font-style:normal;font-weight:normal;line-height:125%;letter-spacing:0px;word-spacing:0px;fill:#000000;fill-opacity:1;stroke:none;font-family:Sans"
       x="439.41635"
       y="725.07275"
       id="text3354"
       sodipodi:linespacing="125%"><tspan
         sodipodi:role="line"
         id="tspan3356"
         x="439.41635"
         y="725.07275">flat side flush against</tspan><tspan
         sodipodi:role="line"
         x="439.41635"
         y="742.57275"
         id="tspan3368">interior of case</tspan></text>
    <rect
       style="fill:#000000"
       id="rect3378"
       width="252.53813"
       height="173.74623"
       x="256.57874"
       y="363.43814" />
    <text
       xml:space="preserve"
       style="font-size:14px;font-style:normal;font-weight:normal;line-height:125%;letter-spacing:0px;word-spacing:0px;fill:#ffffff;fill-opacity:1;stroke:none;font-family:Sans"
       x="299.00516"
       y="408.89502"
       id="text3380"
       sodipodi:linespacing="125%"><tspan
         sodipodi:role="line"
         id="tspan3382"
         x="299.00516"
         y="408.89502" /></text>
    <text
       xml:space="preserve"
       style="font-size:14px;font-style:normal;font-weight:normal;line-height:125%;letter-spacing:0px;word-spacing:0px;fill:#ac9393;fill-opacity:1;stroke:none;font-family:Sans"
       x="321.22852"
       y="439.70465"
       id="text3384"
       sodipodi:linespacing="125%"><tspan
         sodipodi:role="line"
         id="tspan3386"
         x="321.22852"
         y="439.70465" /></text>
    <text
       xml:space="preserve"
       style="font-size:14px;font-style:normal;font-weight:normal;line-height:125%;letter-spacing:0px;word-spacing:0px;fill:#000000;fill-opacity:1;stroke:none;font-family:Sans"
       x="351.02802"
       y="318.99142"
       id="text3388"
       sodipodi:linespacing="125%"><tspan
         sodipodi:role="line"
         id="tspan3390"
         x="351.02802"
         y="318.99142" /></text>
    <text
       xml:space="preserve"
       style="font-size:14px;font-style:normal;font-weight:normal;line-height:125%;letter-spacing:0px;word-spacing:0px;fill:#ffffff;fill-opacity:1;stroke:none;font-family:Sans"
       x="330.31989"
       y="445.76559"
       id="text3392"
       sodipodi:linespacing="125%"><tspan
         sodipodi:role="line"
         id="tspan3394"
         x="330.31989"
         y="445.76559" /></text>
    <text
       xml:space="preserve"
       style="font-size:14px;font-style:normal;font-weight:normal;line-height:125%;letter-spacing:0px;word-spacing:0px;fill:#000000;fill-opacity:1;stroke:none;font-family:Sans"
       x="288.90363"
       y="462.93817"
       id="text4164"
       sodipodi:linespacing="125%"><tspan
         sodipodi:role="line"
         id="tspan4166" /></text>
    <path
       style="fill:#ffffff"
       d="m 137.91412,584.2196 0,-271.13271 249.28572,0 249.28571,0 0,271.13271 0,271.1327 -249.28571,0 -249.28572,0 z m 217.14286,135.21053 0,-106.03353 -95.71429,0 -95.71428,0 0,106.03353 0,64.77101 96.72443,-1.00641 91.67368,-1.0064 z m 251.42857,-2.1349 0,-108.16843 -92.85714,0 -92.85715,0 0,110.18124 0,64.8931 96.89776,1.0064 88.81653,-1.0064 z"
       id="path4186"
       inkscape:connector-curvature="0"
       sodipodi:nodetypes="ccccccccccccccccccccccccccc" />
    <text
       xml:space="preserve"
       style="font-size:20px;font-style:normal;font-weight:normal;line-height:125%;letter-spacing:0px;word-spacing:0px;fill:#000000;fill-opacity:1;stroke:none;font-family:Sans"
       x="274.28571"
       y="263.79074"
       id="text4188"
       sodipodi:linespacing="125%"><tspan
         sodipodi:role="line"
         x="274.28571"
         y="263.79074"
         id="tspan4192" /></text>
    <text
       xml:space="preserve"
       style="font-size:14.12385941px;font-style:normal;font-weight:normal;line-height:125%;letter-spacing:0px;word-spacing:0px;fill:#000000;fill-opacity:1;stroke:none;font-family:Sans"
       x="373.681"
       y="212.79974"
       id="text4196"
       sodipodi:linespacing="125%"
       transform="scale(1.0088471,0.99123049)"><tspan
         sodipodi:role="line"
         id="tspan4198"
         x="373.681"
         y="212.79974" /><tspan
         sodipodi:role="line"
         x="373.681"
         y="230.45457"
         id="tspan4200" /><tspan
         sodipodi:role="line"
         x="377.50131"
         y="257.9534"
         style="font-size:24px;text-align:center;text-anchor:middle"
         id="tspan4208">a portable hardware launch aimed at giving everyone </tspan><tspan
         sodipodi:role="line"
         x="377.50131"
         y="287.9534"
         style="font-size:24px;text-align:center;text-anchor:middle"
         id="tspan4212">at university an audible voice </tspan></text>
    <flowRoot
       xml:space="preserve"
       id="flowRoot4222"
       style="fill:black;stroke:none;stroke-opacity:1;stroke-width:1px;stroke-linejoin:miter;stroke-linecap:butt;fill-opacity:1;font-family:Sans;font-style:normal;font-weight:normal;font-size:14px;line-height:125%;letter-spacing:0px;word-spacing:0px"><flowRegion
         id="flowRegion4224"><rect
           id="rect4226"
           width="200"
           height="21.428572"
           x="270"
           y="265.21933" /></flowRegion><flowPara
         id="flowPara4228" /></flowRoot>    <rect
       style="fill:#ffffff"
       id="rect4232"
       width="205.71428"
       height="98.571426"
       x="257.14285"
       y="385.21933" />
    <rect
       style="fill:#000000;fill-opacity:0.38812788"
       id="rect4246"
       width="208.57143"
       height="77.142853"
       x="271.32703"
       y="437.51447" />
    <text
       xml:space="preserve"
       style="font-size:14px;font-style:normal;font-weight:normal;line-height:125%;letter-spacing:0px;word-spacing:0px;fill:#000000;fill-opacity:1;stroke:none;font-family:Sans"
       x="291.05222"
       y="457.44269"
       id="text4248"
       sodipodi:linespacing="125%"><tspan
         sodipodi:role="line"
         x="291.05222"
         y="457.44269"
         id="tspan4252">Metal Clip MP3 Player</tspan><tspan
         sodipodi:role="line"
         x="291.05222"
         y="474.94269"
         id="tspan4258" /><tspan
         sodipodi:role="line"
         x="291.05222"
         y="492.44269"
         id="tspan4262" /></text>
    <text
       xml:space="preserve"
       style="font-size:14px;font-style:normal;font-weight:normal;line-height:125%;letter-spacing:0px;word-spacing:0px;fill:#000000;fill-opacity:1;stroke:none;font-family:Sans"
       x="464.9928"
       y="355.40851"
       id="text4272"
       sodipodi:linespacing="125%"><tspan
         sodipodi:role="line"
         id="tspan4274"
         x="464.9928"
         y="355.40851">$6 maximum</tspan><tspan
         sodipodi:role="line"
         x="464.9928"
         y="367.92477"
         id="tspan4276"
         style="font-size:9px">www.amazon.com/Purple-</tspan><tspan
         sodipodi:role="line"
         x="464.9928"
         y="379.17477"
         style="font-size:9px"
         id="tspan4278">metal-Player-supports-Micro</tspan><tspan
         sodipodi:role="line"
         x="464.9928"
         y="390.42477"
         style="font-size:9px"
         id="tspan4280">/dp/B006DX0K0I/ref=sr_1_</tspan><tspan
         sodipodi:role="line"
         x="464.9928"
         y="401.67477"
         style="font-size:9px"
         id="tspan4282">31?ie=UTF8&amp;qid=1362647548&amp;sr=</tspan><tspan
         sodipodi:role="line"
         x="464.9928"
         y="412.92477"
         style="font-size:9px"
         id="tspan4284">8-31&amp;keywords=mp3</tspan></text>
    <text
       xml:space="preserve"
       style="font-size:14px;font-style:normal;font-weight:normal;line-height:125%;letter-spacing:0px;word-spacing:0px;fill:#000000;fill-opacity:1;stroke:none;font-family:Sans"
       x="286.04651"
       y="485.79788"
       id="text4302"
       sodipodi:linespacing="125%"><tspan
         sodipodi:role="line"
         id="tspan4304"
         x="286.04651"
         y="485.79788"
         style="font-size:14px">supports </tspan><tspan
         sodipodi:role="line"
         x="286.04651"
         y="503.29791"
         style="font-size:14px"
         id="tspan4306">2GB Sandisk MicroSD Card</tspan></text>
    <path
       style="fill:#000000;fill-opacity:0.38812788"
       id="path4308"
       d="m 384.0075,442.56726 c 4.15508,-6.60309 8.12144,-13.3425 12.12107,-20.04712 4.89324,-7.74126 9.34236,-15.80297 14.75467,-23.20205 6.08154,-7.38015 14.54489,-12.47782 23.37762,-16.05725 2.59833,-0.94965 5.21938,-1.52037 7.97733,-1.67601 3.52156,-0.16454 7.04676,-0.1107 10.57052,-0.11407 2.06317,-0.29107 4.12664,-0.34862 6.16897,-0.74274 0,0 -11.92044,8.93297 -11.92044,8.93297 l 0,0 c -1.99286,0.20921 -4.00902,0.23291 -6.00805,0.3553 -3.53673,0.003 -7.08249,0.0152 -10.60858,0.31304 -2.6237,0.35398 -5.17915,0.9848 -7.63173,2.00378 -4.97421,2.40437 -3.4571,1.71922 9.17231,-5.52364 0.66914,-0.38374 -1.31881,0.80283 -1.94861,1.2482 -2.30742,1.63171 -4.37879,3.56721 -6.22555,5.70327 -5.79945,7.30532 -10.54075,15.38258 -15.41809,23.31449 -3.74764,6.42147 -7.53102,12.82428 -10.75518,19.52988 0,0 -13.62626,5.96195 -13.62626,5.96195 z"
       inkscape:connector-curvature="0" />
    <text
       xml:space="preserve"
       style="font-size:14px;font-style:normal;font-weight:normal;line-height:125%;letter-spacing:0px;word-spacing:0px;fill:#000000;fill-opacity:1;stroke:none;font-family:Sans"
       x="156.57361"
       y="344.24527"
       id="text4318"
       sodipodi:linespacing="125%"><tspan
         sodipodi:role="line"
         id="tspan4320"
         x="156.57361"
         y="344.24527">$4 maximum</tspan><tspan
         sodipodi:role="line"
         x="156.57361"
         y="357.75827"
         id="tspan4322"
         style="font-size:10px">http://www.amazon.com/Sandisk-</tspan><tspan
         sodipodi:role="line"
         x="156.57361"
         y="370.25827"
         style="font-size:10px"
         id="tspan4324">2GB-Micro-Sd-Card/dp/B000N3LL02/</tspan><tspan
         sodipodi:role="line"
         x="156.57361"
         y="382.75827"
         style="font-size:10px"
         id="tspan4326">ref=sr_1_1?ie=UTF8&amp;qid=13626485</tspan><tspan
         sodipodi:role="line"
         x="156.57361"
         y="395.25827"
         style="font-size:10px"
         id="tspan4328">09&amp;sr=8-1&amp;keywords=2+gb+microsd</tspan></text>
    <path
       style="fill:#000000;fill-opacity:0.38812788"
       id="path4332"
       d="m 234.13422,399.33991 c 0.76642,12.10252 2.38244,24.13485 4.03872,36.14419 3.33862,20.20811 8.03563,40.19528 13.49888,59.945 1.44064,3.37294 2.57408,11.9888 5.80161,14.39645 1.01677,0.75849 1.78813,0.55302 2.95635,0.53921 5.65065,-1.35955 11.02471,-3.71606 16.32851,-6.03311 2.61763,-1.21752 5.25569,-2.38851 7.91356,-3.51793 0,0 -8.68513,6.74864 -8.68513,6.74864 l 0,0 c -2.5686,1.07058 -5.11955,2.17919 -7.65237,3.32975 -3.10832,1.33892 -6.22372,2.62814 -9.39546,3.81622 -1.58677,0.59437 -3.81398,1.46371 -5.51534,1.82699 -0.72286,0.15434 -1.46803,0.18025 -2.20204,0.27038 -1.50874,-0.29161 -2.22758,-0.18632 -3.35107,-1.3872 -3.07304,-3.28465 -2.78131,-11.65985 -4.31087,-15.67699 -4.61493,-20.06093 -8.70571,-40.2307 -12.78699,-60.40208 -2.20876,-11.58159 -4.27575,-23.19794 -6.90607,-34.69624 0,0 10.26771,-5.30328 10.26771,-5.30328 z"
       inkscape:connector-curvature="0" />
    <text
       xml:space="preserve"
       style="font-size:14px;font-style:normal;font-weight:normal;line-height:125%;letter-spacing:0px;word-spacing:0px;fill:#000000;fill-opacity:1;stroke:none;font-family:Sans"
       x="502.14285"
       y="472.36218"
       id="text4336"
       sodipodi:linespacing="125%"><tspan
         sodipodi:role="line"
         x="502.14285"
         y="472.36218"
         id="tspan4344" /></text>
    <rect
       style="fill:#000000;fill-opacity:0.38812788"
       id="rect4364"
       width="51.51778"
       height="147.48227"
       x="360.62445"
       y="640.22003" />
    <rect
       style="fill:#0a0000;fill-opacity:0.92694062"
       id="rect4385"
       width="65.659912"
       height="108.08632"
       x="147.48225"
       y="464.4534" />
    <rect
       style="fill:#0a0000;fill-opacity:0.92694062"
       id="rect4385-3"
       width="65.659912"
       height="108.08632"
       x="556.68066"
       y="457.71408" />
    <text
       xml:space="preserve"
       style="font-size:14px;font-style:normal;font-weight:normal;line-height:125%;letter-spacing:0px;word-spacing:0px;fill:#000000;fill-opacity:1;stroke:none;font-family:Sans"
       x="224.39804"
       y="553.75232"
       id="text4425"
       sodipodi:linespacing="125%"><tspan
         sodipodi:role="line"
         id="tspan4427"
         x="224.39804"
         y="553.75232" /><tspan
         sodipodi:role="line"
         x="224.39804"
         y="571.25232"
         id="tspan4479">Scotch All-Weather Fasteners** (for adhesion)</tspan><tspan
         sodipodi:role="line"
         x="224.39804"
         y="584.76532"
         id="tspan4465"><tspan
           style="font-size:12px"
           id="tspan4467"><tspan
             style="font-size:10px"
             id="tspan4477">    attached to box exterior and desired broadcast location </tspan></tspan></tspan><tspan
         sodipodi:role="line"
         x="224.39804"
         y="597.26532"
         id="tspan4463" /></text>
    <text
       xml:space="preserve"
       style="font-size:14px;font-style:normal;font-weight:normal;line-height:125%;letter-spacing:0px;word-spacing:0px;fill:#000000;fill-opacity:1;stroke:none;font-family:Sans"
       x="216.17264"
       y="547.28595"
       id="text4455"
       sodipodi:linespacing="125%"><tspan
         sodipodi:role="line"
         id="tspan4457"
         x="216.17264"
         y="547.28595">**</tspan></text>
    <text
       xml:space="preserve"
       style="font-size:14px;font-style:normal;font-weight:normal;line-height:125%;letter-spacing:0px;word-spacing:0px;fill:#000000;fill-opacity:1;stroke:none;font-family:Sans"
       x="536.39099"
       y="531.12347"
       id="text4459"
       sodipodi:linespacing="125%"><tspan
         sodipodi:role="line"
         id="tspan4461"
         x="536.39099"
         y="531.12347">**</tspan></text>
    <flowRoot
       xml:space="preserve"
       id="flowRoot4469"
       style="fill:black;stroke:none;stroke-opacity:1;stroke-width:1px;stroke-linejoin:miter;stroke-linecap:butt;fill-opacity:1;font-family:Sans;font-style:normal;font-weight:normal;font-size:14px;line-height:125%;letter-spacing:0px;word-spacing:0px"><flowRegion
         id="flowRegion4471"><rect
           id="rect4473"
           width="7.1428571"
           height="35.714287"
           x="190"
           y="506.64789" /></flowRegion><flowPara
         id="flowPara4475" /></flowRoot>    <text
       xml:space="preserve"
       style="font-size:14px;font-style:normal;font-weight:normal;line-height:125%;letter-spacing:0px;word-spacing:0px;fill:#000000;fill-opacity:1;stroke:none;font-family:Sans"
       x="488.91385"
       y="480.61584"
       id="text4481"
       sodipodi:linespacing="125%"><tspan
         sodipodi:role="line"
         id="tspan4483"
         x="488.91385"
         y="480.61584"
         style="font-size:4px">http://www.amazon.com/Scotch</tspan><tspan
         sodipodi:role="line"
         x="488.91385"
         y="485.61584"
         style="font-size:4px"
         id="tspan4485">-All-Weather-Fasteners-Inches-</tspan><tspan
         sodipodi:role="line"
         x="488.91385"
         y="490.61584"
         style="font-size:4px"
         id="tspan4487">RFD7090/dp/B00347A8EO/ref=sr</tspan><tspan
         sodipodi:role="line"
         x="488.91385"
         y="495.61584"
         style="font-size:4px"
         id="tspan4489">_1_1?ie=UTF8&amp;qid=136264930</tspan><tspan
         sodipodi:role="line"
         x="488.91385"
         y="500.61584"
         style="font-size:4px"
         id="tspan4491">9&amp;sr=8-1&amp;keywords=scotch+</tspan><tspan
         sodipodi:role="line"
         x="488.91385"
         y="505.61584"
         style="font-size:4px"
         id="tspan4509">all+weather+fasteners</tspan></text>
    <text
       xml:space="preserve"
       style="font-size:14px;font-style:normal;font-weight:normal;line-height:125%;letter-spacing:0px;word-spacing:0px;fill:#000000;fill-opacity:1;stroke:none;font-family:Sans"
       x="507.09659"
       y="454.35187"
       id="text4511"
       sodipodi:linespacing="125%"><tspan
         sodipodi:role="line"
         id="tspan4513"
         x="507.09659"
         y="454.35187">$8 maximum</tspan></text>
    <path
       style="fill:#000000;fill-opacity:0.92694062"
       id="path4519"
       d="m 534.80018,457.15248 c 0.45088,2.02845 0.63807,4.09977 0.77114,6.16929 0.2997,1.46942 -0.36698,3.34552 0.50788,4.64474 1.48892,0.4166 3.06237,-0.25659 4.45673,-0.74338 2.27638,-0.69147 4.49472,-1.5495 6.81235,-2.09867 1.77293,-0.38596 3.62003,-0.25338 5.25807,0.53119 0.73315,0.51508 0.38574,0.25077 1.04517,0.78909 0,0 -2.53419,1.58957 -2.53419,1.58957 l 0,0 c -0.63275,-0.50884 -0.2989,-0.2647 -1.00426,-0.72868 -1.60637,-0.73099 -3.40674,-0.78202 -5.11645,-0.38543 -2.30562,0.5742 -4.52702,1.4192 -6.79547,2.11984 -1.46141,0.49061 -3.24084,1.25677 -4.70863,0.43921 -0.89087,-1.39372 -0.30528,-3.22745 -0.54975,-4.79733 -0.12568,-2.04801 -0.29458,-4.10351 -0.78019,-6.10308 0,0 2.6376,-1.42636 2.6376,-1.42636 z"
       inkscape:connector-curvature="0" />
    <path
       style="fill:#000000;fill-opacity:0.92694062"
       id="path4707"
       d="m 154.36558,93.695907 c -1.15216,2.327038 -1.76399,4.891975 -2.36399,7.406473 -0.61404,2.61091 -1.32535,5.19566 -2.0305,7.78302 -0.16006,0.93269 0.18737,1.15826 -1.69365,1.2326 -0.25033,0.01 0.18845,-0.46429 0.279,-0.69788 0.12577,-0.32446 0.24662,-0.65081 0.36993,-0.97622 1.22258,-3.47131 2.44573,-6.9486 3.51313,-10.4713 0.87063,-2.830114 1.75097,-5.663538 2.97396,-8.364568 0.53335,-1.103298 1.17371,-1.420799 2.62125,-1.802353 0.31296,-0.08249 0.5426,1.589854 0.5519,1.646096 0.31557,2.795147 0.0625,5.596446 -0.13203,8.388856 -0.16518,2.735779 -0.42919,5.471299 -0.15925,8.206269 0.13555,1.08364 0.30079,2.16328 0.45176,3.24489 0.13603,0.97365 0.18114,0.58678 -1.83804,1.15971 -0.17944,0.0509 0.006,-0.373 0.008,-0.55951 0,0 1.89136,-0.96314 1.89136,-0.96314 l 0,0 c 0.001,0.18703 0.15112,0.44919 0.001,0.5611 -2.07765,1.55143 -1.8222,1.82965 -1.94393,0.79074 -0.12649,-1.09239 -0.28725,-2.18019 -0.41383,-3.27253 -0.24849,-2.75391 0.008,-5.50274 0.18269,-8.255937 0.18962,-2.769165 0.4409,-5.54828 0.0998,-8.317823 -0.0682,-0.406172 -0.0984,-0.787471 -0.267,-1.165607 -0.0367,-0.08221 -0.22545,-0.160172 -0.15757,-0.219278 2.93392,-2.55464 1.35332,-0.925205 1.00444,-0.307357 -1.29653,2.681525 -2.16714,5.536099 -3.05882,8.371165 -1.0526,3.514427 -2.28076,6.976287 -3.44651,10.454317 -0.11773,0.32295 -0.23742,0.64519 -0.35318,0.96885 -0.0844,0.23603 -0.0666,0.53647 -0.24737,0.71018 -1.3183,1.26712 -2.48835,2.25185 -2.12316,0.5356 0.74521,-2.58651 1.46406,-5.1788 2.08346,-7.79867 0.582,-2.51163 1.18879,-5.064305 2.26689,-7.414475 0,0 1.93006,-0.873218 1.93006,-0.873218 z"
       inkscape:connector-curvature="0" />
    <path
       style="fill:#000000;fill-opacity:0.92694062"
       id="path4709"
       d="m 151.88318,102.95824 c 1.2118,-0.58829 2.51202,-0.95695 3.74827,-1.49296 0.98685,-0.40261 1.92252,-0.91551 2.89887,-1.3397 0,0 -1.65099,1.30855 -1.65099,1.30855 l 0,0 c -0.96491,0.44011 -1.9097,0.92267 -2.89048,1.32859 -1.24828,0.52085 -2.55298,0.90448 -3.75994,1.51878 0,0 1.65427,-1.32326 1.65427,-1.32326 z"
       inkscape:connector-curvature="0" />
    <path
       style="fill:#000000;fill-opacity:0.92694062"
       id="path4711"
       d="m 148.0591,118.48778 c -1.28514,-0.40135 -2.56644,-0.33631 -3.76016,0.27927 0.40929,-0.19008 0.77671,-0.58003 1.22788,-0.57024 0.25558,0.006 -0.34417,0.37943 -0.49457,0.58615 -0.83463,1.1471 -1.17677,2.45819 -1.49382,3.81722 -0.46012,2.07693 -0.48543,4.05755 0.53748,5.95181 1.04139,1.44597 2.62022,1.26674 4.06557,0.56945 -0.36935,0.19283 -0.69335,0.53806 -1.10803,0.57848 -0.28503,0.0278 0.45289,-0.35091 0.67147,-0.53592 0.72636,-0.61481 1.22754,-1.25955 1.65493,-2.10373 0.25751,-0.90839 0.0251,-1.72783 -0.521,-2.46824 -0.54949,-0.72176 -1.23862,-0.69312 -2.03681,-0.51851 -0.88984,0.2262 -0.4819,0.15168 1.24095,-0.78447 0.10119,-0.055 -0.19787,0.11793 -0.29635,0.17766 -0.22683,0.13757 -0.45158,0.27855 -0.67621,0.41969 -0.33711,0.49386 -0.49862,0.10398 -0.17995,0.0509 0.54478,-0.0537 0.94604,-0.26539 1.48755,-0.0421 0.83424,0.6468 1.08578,1.70628 1.35575,2.67851 0.35079,1.35861 0.12468,2.7732 -0.0326,4.14541 -0.17093,1.35774 0.0623,0.59892 -1.8904,1.59807 0,0 1.96327,-0.83293 1.96327,-0.83293 l 0,0 c -2.16324,1.25966 -2.18044,1.72083 -1.96322,0.16921 0.1752,-1.34528 0.40978,-2.74081 0.0801,-4.077 -0.24654,-0.88783 -0.47218,-1.92988 -1.26985,-2.48829 -0.50047,-0.11696 -0.94317,0.0963 -1.44509,0.12297 -0.61739,0.0327 -0.28011,-0.31281 -0.0905,-0.55424 1.08523,-0.6823 2.18092,-1.526 3.40662,-1.86243 0.85858,-0.15247 1.6093,-0.0191 2.16622,0.721 0.58359,0.80735 0.84063,1.68061 0.62007,2.67555 -0.99371,2.06635 -2.74815,3.18084 -4.77575,4.23011 -1.56636,0.65153 -3.17955,0.69057 -4.23688,-0.83157 -1.03631,-1.94438 -1.05674,-3.95598 -0.59318,-6.09091 0.27377,-1.22253 0.84376,-3.70776 1.91159,-4.51632 0.74625,-0.56505 1.57225,-1.01623 2.35837,-1.52435 1.25901,-0.54666 2.58099,-0.58583 3.88632,-0.13462 0,0 -1.7697,1.16439 -1.7697,1.16439 z"
       inkscape:connector-curvature="0" />
    <path
       style="fill:#000000;fill-opacity:0.92694062"
       id="path4713"
       d="m 154.5139,121.59489 c -0.0197,1.88347 -0.0221,3.76714 -0.015,5.6507 0.0705,0.79771 0.0658,2.72282 1.33354,2.11253 -0.45757,0.24684 -0.88667,0.55595 -1.37271,0.74051 -0.12076,0.0458 0.3893,-0.18733 1.01136,-0.93378 0.57934,-0.69519 1.05608,-1.47654 1.52425,-2.24745 0.74998,-1.47464 1.33683,-3.03607 1.72429,-4.64461 0.2082,-1.01152 0.31061,-2.03977 0.34119,-3.07085 0.20219,0.0684 -0.062,-0.17118 -0.001,-0.19405 2.13666,-0.80754 1.95047,-1.2382 1.69685,-0.15861 -0.14386,0.61237 -0.14346,0.70919 -0.24358,1.37093 -0.25841,2.2994 -0.27056,4.61767 -0.29804,6.92874 0.21273,1.4148 -0.32523,3.18841 0.0843,4.5636 0.73531,0.0611 0.1096,-0.005 -1.6759,0.86871 0,0 1.96788,-0.8195 1.96788,-0.8195 l 0,0 c -2.06306,1.14678 -1.44393,1.63388 -2.15527,0.96963 -0.42152,-1.39732 0.16009,-3.206 -0.0599,-4.64813 0.0251,-2.31403 0.0396,-4.63353 0.25868,-6.93904 0.28471,-2.16418 -0.0272,-1.70905 2.33292,-3.10485 0.0591,-0.0349 -0.19292,0.44166 -0.012,0.20548 -0.0411,1.04774 -0.14317,2.0911 -0.34848,3.12084 -0.37744,1.63055 -0.97235,3.20527 -1.70741,4.7077 -1.24623,2.10582 -2.36658,3.57195 -4.74109,4.58116 -1.42268,0.25514 -1.43009,-1.44969 -1.51445,-2.46379 0.007,-1.87848 0.005,-3.75706 -0.015,-5.63545 0,0 1.88494,-0.96042 1.88494,-0.96042 z"
       inkscape:connector-curvature="0" />
    <path
       style="fill:#000000;fill-opacity:0.92694062"
       id="path4715"
       d="m 165.22818,122.30917 c -0.021,1.91237 -0.0195,3.82492 -0.0174,5.73739 0.16563,1.04533 -0.4069,2.60983 0.39295,3.47939 0.85202,0.17409 4.0295,-1.74319 1.08883,-0.16357 0.98911,-0.80781 4.98289,-2.7035 1.65753,-1.02086 -0.32933,0.16664 0.62924,-0.38618 0.94912,-0.57031 0.72193,-0.41558 1.44505,-0.82908 2.16758,-1.24362 0.38756,-0.18167 0.69674,-0.58648 0.89768,-0.0522 0.0594,0.18031 -0.008,0.29661 -0.1265,0.42545 0,0 -1.98237,0.78859 -1.98237,0.78859 l 0,0 c 0.11355,-0.0535 0.27211,-0.0384 0.23513,-0.18876 -0.22618,0.11379 -0.44855,0.23506 -0.67068,0.35657 0.48297,-0.28077 0.96686,-0.55997 1.44893,-0.84229 0.31983,-0.1873 -0.64118,0.37203 -0.9595,0.56188 -7.74144,4.61698 1.14348,-0.71208 -1.66227,1.02082 -0.95476,0.57243 -3.39764,2.53984 -4.8617,2.02368 -0.80314,-0.98654 -0.30752,-2.47049 -0.42486,-3.63206 0.002,-1.90655 0.004,-3.81319 -0.0174,-5.71964 0,0 1.88493,-0.96043 1.88493,-0.96043 z"
       inkscape:connector-curvature="0" />
    <path
       style="fill:#000000;fill-opacity:0.92694062"
       id="path4717"
       d="m 166.18393,125.91849 c 1.10928,-0.46347 2.23858,-0.85624 3.40931,-1.12947 0.13245,-0.0277 0.26489,-0.0554 0.39733,-0.0831 0,0 -1.68646,1.27988 -1.68646,1.27988 l 0,0 c -0.12967,0.0278 -0.25934,0.0556 -0.38901,0.0834 -1.17094,0.28458 -2.28937,0.71337 -3.4155,1.13716 0,0 1.68433,-1.28793 1.68433,-1.28793 z"
       inkscape:connector-curvature="0" />
    <path
       style="fill:#000000;fill-opacity:0.92694062"
       id="path4719"
       d="m 166.88318,121.52967 c 1.44247,-0.51486 2.87444,-1.06396 4.34374,-1.50677 0.77585,-0.24252 1.60331,-0.23292 2.33902,0.12513 0.0351,0.0224 0.0701,0.0448 0.10519,0.0672 0,0 -1.79298,1.16017 -1.79298,1.16017 l 0,0 c -0.0298,-0.0165 -0.0597,-0.033 -0.0895,-0.0495 -0.71525,-0.30706 -1.48953,-0.25776 -2.2217,-0.0206 -1.4685,0.44755 -2.91187,0.98568 -4.338,1.54768 0,0 1.65427,-1.32326 1.65427,-1.32326 z"
       inkscape:connector-curvature="0" />
    <path
       style="fill:#000000;fill-opacity:0.92694062"
       id="path4721"
       d="m 175.23062,122.22249 c -0.29935,1.91677 -0.47982,3.84595 -0.60228,5.78116 0.0891,1.32821 -0.35272,2.77089 -0.0414,4.08163 0.0321,0.0308 0.0587,0.11608 0.0964,0.0924 0.0514,-0.0324 0.0949,-0.20332 0.0396,-0.17802 -0.58953,0.2698 -1.1004,0.70049 -1.70313,0.93935 -0.11965,0.0474 0.13227,-0.22138 0.18624,-0.33821 0.19184,-0.41528 0.23522,-0.62137 0.37044,-1.07026 0.0499,-0.24451 0.0998,-0.48902 0.14973,-0.73353 0,0 1.88396,-0.9155 1.88396,-0.9155 l 0,0 c -0.0445,0.24897 -0.089,0.49793 -0.13347,0.7469 -0.24735,0.90246 -1.3402,4.05228 -2.75589,2.46531 -0.33825,-1.32921 0.1543,-2.80764 0.0526,-4.15972 0.12309,-1.92246 0.28698,-3.84174 0.56739,-5.74857 0,0 1.88981,-0.96291 1.88981,-0.96291 z"
       inkscape:connector-curvature="0" />
    <path
       style="fill:#000000;fill-opacity:0.92694062"
       id="path4723"
       d="m 176.19972,119.59598 c 1.03887,0.007 2.07777,0.003 3.11665,0.003 0.53707,0.0405 1.16639,-0.20817 1.51517,0.28028 0.01,0.85856 -0.65301,1.5854 -1.07001,2.29478 -0.56826,1.0351 -1.32204,1.94736 -1.8999,2.975 -0.27029,0.46776 -0.5705,0.85388 -0.57573,1.41185 0.28396,0.57738 0.79895,1.02172 1.24747,1.47287 0.5259,0.58189 1.06825,1.09193 1.78157,1.42403 0.30213,0.0615 0.6174,0.22725 0.87579,0.0216 0,0 -1.6759,1.3161 -1.6759,1.3161 l 0,0 c -0.33736,0.0385 -0.65801,-0.0487 -0.97484,-0.16801 -0.71386,-0.36807 -1.26633,-0.90323 -1.81091,-1.48916 -0.48828,-0.49386 -1.03914,-0.97036 -1.34206,-1.60659 -0.0212,-0.61565 0.20925,-1.02647 0.5459,-1.52017 0.56952,-1.03796 1.32501,-1.94802 1.90575,-2.98089 0.38645,-0.68918 0.87856,-1.32773 1.15726,-2.06412 -0.26475,-0.33999 -1.02657,-0.0211 -1.38784,-0.12648 -1.04143,-1.7e-4 -2.08287,-0.004 -3.12428,0.003 0,0 1.71591,-1.24669 1.71591,-1.24669 z"
       inkscape:connector-curvature="0" />
    <path
       style="fill:#000000;fill-opacity:0.92694062"
       id="path4725"
       d="m 183.16083,122.19965 c 0.33487,1.73962 0.44842,3.50876 0.54055,5.27451 0.0586,1.27695 0.0847,2.55496 0.1052,3.83298 0.0226,0.0651 0.078,0.29745 0.17495,0.33723 0.0454,0.0186 0.14544,-0.17402 0.13967,-0.17114 -0.5826,0.29069 -1.14308,0.62372 -1.71463,0.93558 0,0 1.94082,-0.87859 1.94082,-0.87859 l 0,0 c -0.87864,0.59751 -1.9602,2.09043 -2.4302,0.74085 0.007,-1.28123 -0.0126,-2.56264 -0.065,-3.84287 -0.086,-1.74811 -0.19091,-3.5037 -0.55641,-5.21996 0,0 1.86506,-1.00859 1.86506,-1.00859 z"
       inkscape:connector-curvature="0" />
    <path
       style="fill:#000000;fill-opacity:0.92694062"
       id="path4727"
       d="m 188.08776,122.93678 c -0.0126,1.28867 -0.0103,2.57739 -0.0102,3.8661 8.8e-4,1.00026 0.003,2.00055 0.011,3.00078 -0.0394,0.62587 0.43046,0.42437 0.81989,0.28228 0.90767,-0.46027 1.80491,-0.94094 2.72624,-1.3754 0.56978,-0.28494 1.19528,-0.44259 1.82162,-0.54542 0.0516,0.0447 0.10328,0.0895 0.15492,0.13423 0.0196,7.7e-4 0.0393,0.002 0.0589,0.002 0,0 -1.77029,1.19883 -1.77029,1.19883 l 0,0 c -0.2979,-0.16564 0.0751,0.0265 -0.1467,-0.0518 -0.61137,0.11612 -1.21262,0.29065 -1.76826,0.57629 -0.92366,0.44355 -1.81793,0.94441 -2.75455,1.36171 -0.51623,0.14458 -1.07479,0.0384 -1.03318,-0.61927 0.008,-1.00398 0.0102,-2.00802 0.011,-3.01202 2e-5,-1.28524 0.002,-2.57048 -0.0102,-3.85568 0,0 1.88981,-0.9629 1.88981,-0.9629 z"
       inkscape:connector-curvature="0" />
    <path
       style="fill:#000000;fill-opacity:0.92694062"
       id="path4729"
       d="m 193.87512,124.34251 c 0.0541,1.25533 0.0817,2.53406 -0.10936,3.77858 -0.17192,0.83467 -0.4265,1.64724 -0.58499,2.48476 -0.10017,0.38351 -0.03,0.41685 0.34154,0.4274 0.52011,-0.354 1.15531,-0.43689 1.71463,-0.70363 0.50423,-0.18322 1.22633,-0.75709 1.77214,-0.55736 0.31853,0.13983 0.62365,0.30847 0.91628,0.49616 0.0178,0.012 0.0356,0.0239 0.0533,0.0359 -0.60782,0.29748 -1.21564,0.59496 -1.82345,0.89245 0,0 1.92772,-0.91407 1.92772,-0.91407 l 0,0 c -0.63531,0.39146 -1.27063,0.78292 -1.90595,1.17438 -0.0165,-0.011 -0.033,-0.0221 -0.0495,-0.0331 -0.27142,-0.17438 -0.55416,-0.34125 -0.86613,-0.43079 -0.59408,0.0481 -1.14203,0.44117 -1.68534,0.65068 -0.58474,0.23192 -1.19021,0.45773 -1.79205,0.62134 -0.41815,-0.0816 -0.65613,-0.28354 -0.5148,-0.73044 0.16268,-0.84114 0.40978,-1.65722 0.60661,-2.49048 0.22704,-1.21012 0.16346,-2.46653 0.13423,-3.69316 0,0 1.86507,-1.00859 1.86507,-1.00859 z"
       inkscape:connector-curvature="0" />
    <path
       style="fill:#000000;fill-opacity:0.92694062"
       id="path4731"
       d="m 200.94491,122.93678 c -0.21056,1.87755 -0.59596,3.72516 -0.92163,5.5843 -0.21649,1.53232 -0.58092,3.04545 -0.99196,4.53693 -0.30296,0.91586 -0.0127,0.6564 -2.07359,1.06609 -0.11713,0.0233 0.0243,-0.23783 0.045,-0.35545 0.0696,-0.39505 0.15734,-0.78675 0.22859,-1.18152 0.50379,-2.15971 0.85596,-4.3484 1.37679,-6.50482 0.3559,-1.76521 0.88876,-3.47579 1.48459,-5.17204 0.37617,-1.07361 0.44275,-0.97292 2.21837,-1.55364 0.19456,-0.0636 0.46522,1.12652 0.47895,1.18161 0.27839,1.84349 0.25119,3.71707 0.27138,5.5767 0.0108,1.8143 0.0185,3.62866 0.0217,5.44299 0.003,0.56257 0.004,1.12516 0.0124,1.68768 -1.5e-4,0.0294 0.001,0.0588 0.002,0.0881 0,0 -1.90915,0.97155 -1.90915,0.97155 l 0,0 c 8.7e-4,-0.03 0.003,-0.06 0.003,-0.09 0.0113,-0.56791 0.0154,-1.13595 0.0201,-1.70394 0.009,-1.81815 0.0231,-3.63632 0.007,-5.45449 -0.0196,-1.83922 -0.007,-3.69224 -0.28437,-5.51487 -0.0723,-0.29189 -0.11445,-0.55099 -0.2531,-0.81801 -0.0303,-0.0583 -0.17496,-0.11353 -0.12315,-0.15398 2.57065,-2.00681 1.76047,-1.42348 1.44635,-0.55138 -0.62605,1.69117 -1.18094,3.39986 -1.5358,5.17139 -0.52415,2.14488 -0.86634,4.32256 -1.34873,6.47572 -0.32626,1.9734 0.0809,1.13914 -2.18336,2.48579 -0.0749,0.0446 0.67033,0.0981 0.18209,-0.18759 0.4768,-1.47245 0.8006,-3.00818 1.04258,-4.53376 0.32018,-1.84132 0.70029,-3.6697 0.89497,-5.53053 0,0 1.88982,-0.9629 1.88982,-0.9629 z"
       inkscape:connector-curvature="0" />
    <path
       style="fill:#000000;fill-opacity:0.92694062"
       id="path4733"
       d="m 199.77115,126.73884 c 0.75031,0.006 0.37017,0.0338 1.13982,-0.0925 0,0 -1.6846,1.26082 -1.6846,1.26082 l 0,0 c -0.79457,0.0971 -0.40406,0.0729 -1.17113,0.0784 0,0 1.71591,-1.24668 1.71591,-1.24668 z"
       inkscape:connector-curvature="0" />
    <path
       style="fill:#000000;fill-opacity:0.92694062"
       id="path4735"
       d="m 199.75535,127.34706 c 0.86469,-0.238 1.74644,-0.39811 2.63076,-0.54222 0.31473,-0.0719 0.63174,-0.0737 0.95207,-0.0756 0.0918,-8.3e-4 0.18364,6.9e-4 0.27545,0.002 0,0 -1.73168,1.25502 -1.73168,1.25502 l 0,0 c -0.0895,-5.3e-4 -0.17899,-0.002 -0.26849,-2.2e-4 -0.31103,0.006 -0.61839,0.0394 -0.9248,0.0946 -0.88144,0.14181 -1.75707,0.31445 -2.61763,0.55475 0,0 1.68432,-1.28793 1.68432,-1.28793 z"
       inkscape:connector-curvature="0" />
    <path
       style="fill:#000000;fill-opacity:0.92694062"
       id="path4739"
       d="m 153.90866,146.11594 c -0.70992,-1.13266 -1.76314,-1.92643 -2.96723,-2.46285 -0.99124,-0.24492 -2.00415,-0.27043 -2.95467,0.1532 -0.22885,0.10199 -0.89404,0.43478 -0.65023,0.37707 0.40956,-0.0969 0.77356,-0.33189 1.16034,-0.49783 -1.71596,1.6579 -2.21663,4.04428 -2.68383,6.2959 -0.27445,2.54767 -0.43364,5.15976 1.07952,7.35205 1.3895,1.46329 3.05114,1.35849 4.73836,0.50371 -0.35555,0.17997 -0.6686,0.55876 -1.06666,0.5399 -0.2759,-0.0131 0.41559,-0.3647 0.60935,-0.56156 0.77915,-0.7916 1.28111,-1.66121 1.68658,-2.68488 0.27246,-1.0693 0.13863,-2.08906 -0.38072,-3.0488 -0.35216,-0.61977 -0.78443,-0.79209 -1.46337,-0.68528 -1.06494,0.0671 -2.10268,0.77356 0.7886,-0.80137 -0.11062,-0.31146 0.75066,-0.22566 0.95867,-0.23832 0.57056,-0.11972 1.10083,-0.17468 1.69101,-0.12761 0.5904,-0.002 0.71177,0.42307 0.66666,0.94713 -0.27932,1.24066 -0.4821,2.49466 -0.7261,3.74284 -0.33967,1.84208 -0.78462,3.65993 -1.0738,5.51247 0.018,-0.11362 -0.33611,2.22643 0.12704,1.86962 -2.48039,1.41241 -1.74919,1.07218 -1.27366,0.19448 0,0 1.93178,-0.87094 1.93178,-0.87094 l 0,0 c -0.57028,1.15778 -0.63771,1.05244 -2.41907,1.88593 -0.66691,-0.46751 -0.31464,-1.51289 -0.2443,-2.15861 0.29218,-1.85504 0.7408,-3.67607 1.07666,-5.52138 0.2294,-1.24122 0.42453,-2.4872 0.69604,-3.71958 0.11284,-0.47338 -0.0154,-0.64258 -0.49105,-0.64342 -0.57396,-0.0338 -1.10556,0.0826 -1.67166,0.14821 -0.39315,0.0253 -1.03968,0.2469 -1.22158,-0.21071 1.41376,-0.83315 1.62517,-1.18366 2.89551,-1.27722 0.73338,-0.03 1.219,0.25711 1.59144,0.9007 0.53143,1.01722 0.70016,2.08632 0.44116,3.2202 -0.88782,2.3902 -2.4279,3.75157 -4.76112,4.88892 -1.7911,0.7992 -3.50202,0.78175 -4.89867,-0.75147 -1.55624,-2.31452 -1.38107,-4.8368 -1.13284,-7.51052 0.45204,-2.26714 0.92401,-4.68914 2.59487,-6.40219 2.21486,-1.47676 3.45607,-2.72521 6.12492,-1.97792 1.23968,0.57764 2.31186,1.40938 3.06296,2.57194 0,0 -1.84091,1.04819 -1.84091,1.04819 z"
       inkscape:connector-curvature="0" />
    <path
       style="fill:#000000;fill-opacity:0.92694062"
       id="path4741"
       d="m 160.15639,147.24593 c -0.32305,1.985 -0.61286,3.97819 -0.90061,5.9703 -0.1831,1.6864 -0.58498,3.50897 0.17319,5.10612 -0.10288,0.47794 1.09211,-0.18431 1.01189,-0.14571 -2.31684,1.11467 -1.20275,0.5654 -0.36037,-0.36154 1.09544,-1.36563 1.84405,-2.96986 2.54075,-4.56547 0.3865,-0.94945 0.60998,-1.95724 0.7105,-2.97533 -0.44291,-1.10863 2.22393,-2.1096 1.73143,-1.26305 -0.534,1.09368 -0.42746,2.35687 -0.31635,3.52923 0.20124,1.78195 0.32726,3.57 0.41881,5.36046 0.1066,0.91671 0.41281,1.79018 0.64349,2.67974 0.0383,0.14824 0.0749,0.29688 0.11093,0.44566 0,0 -1.88173,1.01166 -1.88173,1.01166 l 0,0 c -0.0308,-0.14932 -0.0631,-0.29833 -0.0983,-0.44666 -0.21786,-0.90941 -0.52358,-1.7988 -0.63699,-2.73061 -0.0721,-1.7889 -0.19548,-3.57526 -0.40789,-5.35352 -0.12579,-1.20887 -0.239,-2.47613 0.22256,-3.63429 0.64999,-1.03753 2.53809,-2.13517 2.11292,-0.54484 -0.0843,1.0421 -0.33791,2.07312 -0.70763,3.04938 -0.70403,1.60611 -1.44595,3.22408 -2.51265,4.62596 -1.06809,1.20687 -1.55615,1.51581 -3.22284,2.48537 -0.44935,0.26139 -0.84319,0.24739 -1.19718,-0.12635 -0.75411,-1.65075 -0.38666,-3.49415 -0.18943,-5.23429 0.28603,-1.98897 0.59042,-3.97345 0.84329,-5.96619 0,0 1.91223,-0.91603 1.91223,-0.91603 z"
       inkscape:connector-curvature="0" />
    <path
       style="fill:#000000;fill-opacity:0.92694062"
       id="path4743"
       d="m 170.23062,147.22249 c -0.0147,1.51674 -0.0146,3.03362 -0.0159,4.55042 -2.2e-4,1.50632 0.001,3.01265 0.01,4.51895 0.48959,1.40224 -2.20777,2.24005 -1.58616,1.23915 0.1951,-0.43869 0.44747,-0.84656 0.65931,-1.27681 0,0 1.92695,-0.87806 1.92695,-0.87806 l 0,0 c -0.19574,0.44239 -0.46844,0.838 -0.64907,1.28687 -0.51883,1.07995 -2.72268,2.33542 -2.2288,0.58562 0.008,-1.50965 0.0101,-3.01933 0.01,-4.52901 -0.001,-1.5114 -0.001,-3.02289 -0.0159,-4.53422 0,0 1.88981,-0.96291 1.88981,-0.96291 z"
       inkscape:connector-curvature="0" />
    <path
       style="fill:#000000;fill-opacity:0.92694062"
       id="path4745"
       d="m 176.01801,146.57651 c 0.28662,1.89959 0.0935,3.84591 0.0251,5.75918 -0.0487,1.35335 -0.0794,2.7073 -0.0908,4.06146 -0.002,0.95809 0.0761,0.51509 -1.84045,1.12354 -0.0787,0.025 0.0834,-0.14265 0.11938,-0.21695 0.15001,-0.31006 0.13801,-0.32846 0.24247,-0.68342 0,0 1.91028,-0.91109 1.91028,-0.91109 l 0,0 c -0.20499,0.84209 -2.0598,4.29686 -2.32424,1.64755 0.0419,-1.36179 0.0807,-2.7237 0.12978,-4.08525 0.0719,-1.89102 0.26959,-3.82394 -0.0366,-5.69784 0,0 1.86514,-0.99718 1.86514,-0.99718 z"
       inkscape:connector-curvature="0" />
    <path
       style="fill:#000000;fill-opacity:0.92694062"
       id="path4747"
       d="m 177.51991,144.32271 c 0.69484,1.02172 1.35045,2.09304 2.17919,3.01377 0.66814,0.67356 0.99567,1.45786 1.15788,2.37628 -0.0304,1.27869 -0.58307,2.45763 -1.19114,3.55679 -0.79224,1.24491 -1.61594,2.47125 -2.63374,3.54396 -1.17694,1.27149 -0.70363,0.92911 -2.9007,1.89923 0,0 1.79164,-1.15516 1.79164,-1.15516 l 0,0 c -3.08766,1.92225 -1.54272,1.00053 -0.83606,0.0648 1.0422,-1.04622 1.86625,-2.26327 2.66716,-3.49943 0.6077,-1.05648 1.13676,-2.18662 1.23413,-3.41806 -0.14446,-0.88459 -0.45075,-1.62934 -1.09346,-2.27776 -0.8264,-0.94775 -1.4906,-2.03155 -2.21581,-3.05628 0,0 1.84091,-1.04818 1.84091,-1.04818 z"
       inkscape:connector-curvature="0" />
    <path
       style="fill:#000000;fill-opacity:0.92694062"
       id="path4749"
       d="m 185.94491,147.93678 c -0.0356,1.77783 -0.36477,3.54 -0.72984,5.27611 -0.27432,1.29159 -0.5151,2.59093 -0.649,3.90511 -0.0549,0.43838 -0.11979,0.82754 0.32316,1.04158 0.30859,0.0631 0.67523,0.0676 0.94301,-0.0963 0.71785,-0.39164 1.51254,-0.46602 2.31282,-0.53217 1.34781,0.0301 2.65305,-0.18681 3.97503,-0.41361 0.8897,-0.16244 1.78809,-0.27487 2.68752,-0.36751 -4.04352,2.21494 -0.83887,1.02724 -1.90682,0.67511 0,0 1.77926,-1.17142 1.77926,-1.17142 l 0,0 c 1.20967,0.7502 -0.62241,1.52395 -1.58207,1.76468 -0.88851,0.0863 -1.7745,0.20088 -2.65303,0.36037 -1.32692,0.22906 -2.64415,0.40249 -3.99387,0.40735 -0.79957,0.083 -1.57188,0.21285 -2.29132,0.59244 -0.3402,0.0786 -0.73977,0.10491 -1.06173,-0.0573 -0.46588,-0.31361 -0.52044,-0.72574 -0.42628,-1.26154 0.12894,-1.32799 0.40172,-2.63643 0.67116,-3.94162 0.36633,-1.71415 0.70865,-3.4608 0.71218,-5.21837 0,0 1.88982,-0.9629 1.88982,-0.9629 z"
       inkscape:connector-curvature="0" />
    <path
       style="fill:#000000;fill-opacity:0.92694062"
       id="path4751"
       d="m 184.75535,153.06135 c 1.09586,-0.29084 2.2245,-0.42521 3.35061,-0.53287 0.57487,-0.20662 1.12746,-0.47085 1.69506,-0.7006 0.10776,-0.0449 0.21705,-0.0859 0.32653,-0.12631 0,0 -1.68679,1.31936 -1.68679,1.31936 l 0,0 c -0.10481,0.0416 -0.20972,0.083 -0.31438,0.12497 -0.56558,0.22911 -1.11461,0.51661 -1.71556,0.63928 -1.12468,0.10965 -2.24871,0.26049 -3.33979,0.5641 0,0 1.68432,-1.28793 1.68432,-1.28793 z"
       inkscape:connector-curvature="0" />
    <path
       style="fill:#000000;fill-opacity:0.92694062"
       id="path4753"
       d="m 185.46964,145.91849 c 1.32355,-0.27956 2.67026,-0.43241 4.01835,-0.5281 0.82866,-0.0547 1.65924,-0.0771 2.48952,-0.0882 0.1156,-0.009 0.23727,-4.7e-4 0.34925,0.011 0,0 -1.7488,1.23777 -1.7488,1.23777 l 0,0 c -0.0934,0.006 -0.22166,0.009 -0.32239,0.005 -0.81979,0.003 -1.63966,0.026 -2.45766,0.082 -1.34727,0.10447 -2.69612,0.25422 -4.01259,0.56887 0,0 1.68432,-1.28793 1.68432,-1.28793 z"
       inkscape:connector-curvature="0" />
    <path
       style="fill:#000000;fill-opacity:0.92694062"
       id="path4773"
       d="m 100.71245,109.15941 c 2.41717,0.21522 4.76597,-0.41332 7.08913,-0.98827 2.01239,-0.34644 3.84838,-1.28259 5.78962,-1.86697 0.7406,-0.20989 1.35052,-0.52605 1.79442,0.24749 0.084,0.21324 0.0504,0.11033 0.10447,0.30747 0,0 -2.66103,1.433 -2.66103,1.433 l 0,0 c -0.0267,-0.15125 -0.008,-0.0732 -0.0592,-0.23351 -0.29404,-0.53306 -1.10478,0.025 -1.54214,0.0747 -1.91491,0.62289 -3.76856,1.45892 -5.7611,1.82187 -2.36194,0.57836 -4.77038,1.19672 -7.222555,0.90675 0,0 2.468345,-1.70256 2.468345,-1.70256 z"
       inkscape:connector-curvature="0" />
    <path
       style="fill:#000000;fill-opacity:0.92694062"
       id="path4775"
       d="m 117.0639,108.79155 c -2.4689,2.9896 -2.79588,6.99555 -3.2019,10.70062 -0.2053,5.2264 -0.0101,10.46506 0.63501,15.6542 0.28809,1.26685 0.27044,2.6254 0.6285,3.88041 0.0489,0.17156 0.11782,0.34532 0.23227,0.48218 0.0458,0.0548 0.27173,0.0111 0.20936,0.0459 -0.78714,0.43997 -1.61837,0.79594 -2.42756,1.19391 0.0741,-0.13243 0.14812,-0.26485 0.22218,-0.39727 0,0 2.72278,-1.2564 2.72278,-1.2564 l 0,0 c -0.0515,0.1739 -0.10309,0.3478 -0.15463,0.5217 -0.96108,0.52914 -1.87518,1.15444 -2.88325,1.58741 -0.29237,0.12557 -0.46219,-0.47687 -0.54411,-0.78434 -0.33906,-1.27259 -0.28514,-2.64686 -0.56994,-3.92785 -0.6117,-5.21775 -0.79164,-10.47656 -0.63155,-15.72839 0.37001,-3.73284 0.6733,-7.72401 3.00348,-10.82916 0,0 2.75936,-1.14296 2.75936,-1.14296 z"
       inkscape:connector-curvature="0" />
    <path
       style="fill:#000000;fill-opacity:0.92694062"
       id="path4777"
       d="m 100.33125,108.68215 c -0.0691,3.03721 0.34807,6.05951 0.55724,9.08639 0.25155,4.03912 0.2297,8.08168 0.68522,12.10503 0.32148,1.23433 0.14301,2.69869 0.68292,3.87119 -3.051406,1.92186 -3.003124,1.42537 -2.14157,-0.21862 0,0 2.74523,-1.22916 2.74523,-1.22916 l 0,0 c -1.01074,1.75328 -0.14402,1.53925 -3.206241,2.99035 -0.707445,-1.12986 -0.224112,-2.8529 -0.669096,-4.05849 -0.438302,-4.03269 -0.409491,-8.08104 -0.6666,-12.12751 -0.223883,-3.01938 -0.648313,-6.0286 -0.659702,-9.05742 0,0 2.672599,-1.36176 2.672599,-1.36176 z"
       inkscape:connector-curvature="0" />
    <path
       style="fill:#000000;fill-opacity:0.92694062"
       id="path4779"
       d="m 101.67943,138.15274 c 2.442,-0.42755 4.85804,-0.97441 7.31021,-1.35593 2.20875,-0.3065 4.45284,-0.6612 6.59376,0.11747 0,0 -2.46593,1.66934 -2.46593,1.66934 l 0,0 c -2.11669,-0.6887 -4.31679,-0.3212 -6.47892,-0.0218 -2.46247,0.39342 -4.89617,0.93057 -7.341119,1.41235 0,0 2.381999,-1.82141 2.381999,-1.82141 z"
       inkscape:connector-curvature="0" />
    <path
       style="fill:#000000;fill-opacity:0.92694062"
       id="path4781"
       d="m 104.4171,119.26133 c -0.90334,-1.30578 -2.1485,-2.32164 -3.32948,-3.36591 -1.204853,-1.23726 -4.093992,0.90498 0.0552,-1.33727 -1.871482,1.85392 -2.129877,4.61106 -2.454392,7.08909 -0.546437,4.98402 -0.416001,9.98905 0.11512,14.96448 0.385508,3.94463 1.087068,7.83783 1.946132,11.70351 0.093,1.19543 0.81569,2.12368 1.29667,3.1603 1.19014,1.06736 -2.444258,2.84088 -2.367735,1.78041 -0.0028,-0.22846 0.01216,-0.41769 0.08131,-0.64035 0,0 2.765677,-1.20573 2.765677,-1.20573 l 0,0 c -0.22818,0.12629 -0.13473,0.26022 -0.14699,0.49295 -0.10458,1.69551 -2.930312,2.87041 -2.951398,1.05204 -0.47872,-1.06353 -1.203383,-2.02518 -1.279065,-3.24459 -0.793527,-3.8975 -1.501442,-7.80874 -1.880884,-11.77199 -0.534942,-4.9864 -0.684086,-10.00246 -0.188462,-15.0021 0.303822,-2.53537 0.544069,-5.25823 2.282336,-7.27538 1.586719,-0.95381 3.529333,-2.98363 5.264943,-1.34103 1.18766,1.0673 2.42666,2.10994 3.36388,3.41472 0,0 -2.57285,1.52685 -2.57285,1.52685 z"
       inkscape:connector-curvature="0" />
    <path
       style="fill:#000000;fill-opacity:0.92694062"
       id="path4783"
       d="m 100.90231,151.44024 c 1.24549,-2.4311 1.01942,-5.204 1.01159,-7.85422 0.0855,-4.8526 -0.40108,-9.68333 -0.73591,-14.51807 0.075,-2.83634 -0.70749,-5.75595 -0.36191,-8.58523 0.42238,-1.53718 2.09515,-2.49287 3.74874,-2.45172 0,0 -2.43889,1.76877 -2.43889,1.76877 l 0,0 c -1.18095,0.01 -0.27964,0.0493 2.03172,-1.42167 0.14005,-0.0891 -1.00633,0.6965 -0.65652,0.78958 -0.55483,2.78024 0.39232,5.77513 0.22868,8.57813 0.32332,4.83585 0.81686,9.66524 0.77618,14.51736 0.0267,2.66915 0.29407,5.46017 -0.87416,7.94216 0,0 -2.72952,1.23491 -2.72952,1.23491 z"
       inkscape:connector-curvature="0" />
    <path
       style="fill:#000000;fill-opacity:0.92694062"
       id="path4785"
       d="m 42.752552,43.022238 c 0.0022,7.141003 0.306927,14.28655 0.548564,21.424431 0.783552,22.026627 0.851463,44.065881 0.711965,66.102881 -0.161506,18.94764 -0.444747,37.9105 0.39525,56.8466 0.367029,5.35699 0.153918,2.9447 0.588454,7.24121 0,0 -2.525596,1.31398 -2.525596,1.31398 l 0,0 c -0.303184,-4.36925 -0.15414,-1.92103 -0.413136,-7.34664 -0.570862,-19.01003 -0.197696,-38.03314 -0.02736,-57.04661 0.130929,-21.97918 0.0051,-43.962311 -1.04069,-65.922078 -0.332432,-7.082037 -0.707174,-14.166605 -0.910048,-21.252019 0,0 2.672596,-1.361755 2.672596,-1.361755 z"
       inkscape:connector-curvature="0" />
    <path
       style="fill:#000000;fill-opacity:0.92694062"
       id="path4787"
       d="m 56.891243,50.215893 c 0.221188,7.451515 0.733319,14.896544 1.010551,22.349796 1.091707,22.645041 0.866411,45.323601 0.825984,67.986961 -0.04778,18.5702 0.366018,37.12602 1.486221,55.66158 0,0 -2.228084,1.1504 -2.228084,1.1504 l 0,0 c -0.879028,-18.59858 -1.222296,-37.20803 -1.189449,-55.82815 0.0013,-22.59702 0.145162,-45.214942 -1.202514,-67.782295 -0.365149,-7.400447 -0.938444,-14.78675 -1.368415,-22.180047 0,0 2.665706,-1.358245 2.665706,-1.358245 z"
       inkscape:connector-curvature="0" />
    <path
       style="fill:#000000;fill-opacity:0.92694062"
       id="path4789"
       d="m 101.30087,136.73551 c -2.065292,-1.27861 -4.347309,-2.16527 -6.67518,-2.82972 -4.353287,-0.99982 -8.803816,-1.41241 -13.210779,-2.10074 -7.633955,-1.27302 -15.15747,-3.07547 -22.622983,-5.09652 -6.184347,-1.5889 -12.491717,-3.94915 -18.986444,-3.56927 -1.076835,0.063 -2.137915,0.28892 -3.206873,0.43339 -2.214732,0.73919 -3.870115,1.11211 -5.816121,2.49667 -0.182926,0.13015 -0.03621,0.4765 -0.179824,0.64905 -0.728885,0.87578 -1.650995,1.57627 -2.392359,2.44151 -1.859453,2.17014 -2.501159,3.44931 -3.980057,5.88203 -2.182569,4.52611 -4.427626,9.77767 -3.425383,14.94339 0.157654,0.81257 0.5169,1.57269 0.77535,2.35903 0.442843,0.6813 0.790492,1.43497 1.328529,2.0439 3.699344,4.18678 9.956479,3.61221 14.930153,3.19507 9.267904,-1.23552 17.722676,-5.24298 26.069356,-9.21582 5.225208,-2.30755 10.077743,-5.63077 15.627605,-7.14753 2.211271,-0.23458 3.084812,0.11076 3.586485,2.27924 0.02719,0.19243 0.05963,0.3842 0.08158,0.57731 0.0013,0.0114 0.110077,0.94125 0.05112,0.96796 -2.832687,1.28339 -2.669172,2.03544 -2.728671,0.66937 0,0 2.670502,-1.37632 2.670502,-1.37632 l 0,0 c 0.07059,1.43107 0.139369,0.44904 -2.642889,2.06172 -0.03746,0.0217 0.01797,-0.0851 0.01998,-0.12836 0.01047,-0.2253 -0.0019,-0.58951 -0.02001,-0.8012 -0.01588,-0.18601 -0.04275,-0.37093 -0.06413,-0.5564 -0.424194,-2.03208 -1.260774,-2.15985 -3.274542,-1.9084 -5.465828,1.5726 -10.284568,4.77839 -15.451579,7.07095 -8.373852,3.96851 -16.865761,7.94908 -26.15947,9.15894 -5.114653,0.40308 -11.406225,0.91417 -15.175379,-3.39774 -0.550919,-0.63025 -0.90835,-1.40635 -1.362525,-2.10953 -0.265889,-0.80851 -0.633926,-1.59032 -0.797666,-2.42552 -1.023412,-5.22026 1.218332,-10.53486 3.400101,-15.12555 1.449003,-2.41863 2.126955,-3.76877 3.945787,-5.93663 3.412509,-4.06737 8.164605,-6.94265 13.246508,-8.35554 1.074411,-0.13127 2.141993,-0.34372 3.223234,-0.39379 6.496669,-0.30089 12.789922,2.07059 18.978751,3.65778 7.479351,2.012 15.021302,3.78963 22.672901,5.02367 4.442897,0.6638 8.931656,1.05269 13.313908,2.07487 2.350365,0.689 4.635666,1.60056 6.753756,2.84203 0,0 -2.50273,1.6467 -2.50273,1.6467 z"
       inkscape:connector-curvature="0" />
    <text
       xml:space="preserve"
       style="font-size:14px;font-style:normal;font-weight:normal;line-height:125%;letter-spacing:0px;word-spacing:0px;fill:#000000;fill-opacity:1;stroke:none;font-family:Sans"
       x="159.6041"
       y="806.89514"
       id="text4810"
       sodipodi:linespacing="125%"><tspan
         sodipodi:role="line"
         id="tspan4812"
         x="159.6041"
         y="806.89514">Hotel Room Style Bar Slide Lock Receiver </tspan><tspan
         sodipodi:role="line"
         x="159.6041"
         y="824.39514"
         id="tspan4834">                  with </tspan><tspan
         sodipodi:role="line"
         x="159.6041"
         y="837.90814"
         style="font-size:10px"
         id="tspan4818">                                                            </tspan></text>
    <text
       xml:space="preserve"
       style="font-size:14px;font-style:normal;font-weight:normal;line-height:125%;letter-spacing:0px;word-spacing:0px;fill:#000000;fill-opacity:1;stroke:none;font-family:Sans"
       x="573.76666"
       y="827.09814"
       id="text4820"
       sodipodi:linespacing="125%"><tspan
         sodipodi:role="line"
         id="tspan4822"
         x="573.76666"
         y="827.09814">$5 max</tspan></text>
    <text
       xml:space="preserve"
       style="font-size:14px;font-style:normal;font-weight:normal;line-height:125%;letter-spacing:0px;word-spacing:0px;fill:#000000;fill-opacity:1;stroke:none;font-family:Sans"
       x="470.73111"
       y="838.20984"
       id="text4826"
       sodipodi:linespacing="125%"><tspan
         sodipodi:role="line"
         id="tspan4828"
         x="470.73111"
         y="838.20984"
         style="font-size:7.5px"> http://www.amazon.com/gp/product/B003</tspan><tspan
         sodipodi:role="line"
         x="470.73111"
         y="848.20984"
         id="tspan4832"
         style="font-size:7.5px">HC83BG/ref=noref?ie=UTF8&amp;psc=1&amp;s=hi</tspan></text>
    <text
       xml:space="preserve"
       style="font-size:14px;font-style:normal;font-weight:normal;line-height:125%;letter-spacing:0px;word-spacing:0px;fill:#000000;fill-opacity:1;stroke:none;font-family:Sans"
       x="466.69049"
       y="801.8443"
       id="text4836"
       sodipodi:linespacing="125%"><tspan
         sodipodi:role="line"
         id="tspan4838"
         x="466.69049"
         y="801.8443"
         style="font-size:10px">see launch pictures for specific</tspan><tspan
         sodipodi:role="line"
         x="466.69049"
         y="814.3443"
         style="font-size:10px"
         id="tspan4848">       configuration</tspan></text>
    <path
       style="fill:#000000;fill-opacity:0.92694062"
       id="path4840"
       d="m 388.92082,787.49114 c -0.98183,0.9751 -1.96011,1.95375 -2.93536,2.93543 -0.38975,0.46232 -0.67486,1.00608 -0.78351,1.6017 -0.0315,0.31363 -0.0258,0.62899 -0.0117,0.9433 0,0 -2.6886,1.38829 -2.6886,1.38829 l 0,0 c -0.0149,-0.33087 -0.0181,-0.66225 -0.001,-0.9932 0.0361,-0.65654 0.36149,-1.25057 0.71518,-1.79283 0.9817,-0.97536 1.96052,-1.95361 2.93563,-2.93554 0,0 2.76947,-1.14715 2.76947,-1.14715 z"
       inkscape:connector-curvature="0" />
    <path
       style="fill:#666666;fill-opacity:0.92694061999999999"
       id="path4842"
       d="m 449.13803,810.51509 c 1.75293,1.69654 3.81145,2.51207 6.2248,2.49306 0.66007,1.06074 1.98786,-1.54438 2.49527,-0.82965 0.26109,0.36776 -1.43383,1.03405 -1.18073,0.66075 0.0185,-0.0273 3.57445,-2.65738 3.90422,-2.92982 1.91135,-1.58727 3.53944,-3.50608 5.6598,-4.82684 0.60131,0.0758 3.59437,-3.10919 4.68066,-1.57108 0.0378,0.49976 0.32481,0.88111 0.48814,1.3268 0.0356,0.18596 -0.009,0.30168 -0.0925,0.46239 0,0 -2.73302,1.2813 -2.73302,1.2813 l 0,0 c 0.0448,-0.20957 0.0346,-0.19505 0.17317,-0.30012 -0.0412,-0.37991 -0.5383,-0.78401 -0.43401,-1.23459 -0.61784,-0.8229 -3.95696,1.96325 0.69592,-1.03486 -2.1927,1.23534 -3.81132,3.20036 -5.72426,4.80184 -3.0051,2.51733 -6.37263,5.28393 -10.32132,5.92565 -2.47344,-0.0682 -4.56599,-0.96174 -6.39205,-2.65857 0,0 2.55591,-1.56626 2.55591,-1.56626 z"
       inkscape:connector-curvature="0" />
    <path
       style="fill:#666666;fill-opacity:0.92694062"
       id="path4844"
       d="m 454.45015,837.10845 c 1.74278,-0.48708 3.46904,0.34616 5.09761,1.1355 1.8443,0.75562 3.5909,1.96543 5.46489,2.5709 0.74264,0.19305 1.49761,0.21669 2.25029,0.2047 0,0 -1.23211,1.24715 -1.23211,1.24715 l 0,0 c -0.75445,-0.01 -1.5112,-0.0494 -2.25271,-0.26412 -1.8638,-0.6593 -3.61364,-1.83715 -5.45611,-2.6026 -1.61903,-0.7663 -3.35668,-1.59638 -5.07319,-0.97572 0,0 1.20133,-1.31581 1.20133,-1.31581 z"
       inkscape:connector-curvature="0" />
    <path
       style="fill:#666666;fill-opacity:0.92694062"
       id="path4846"
       d="m 472.08722,823.07894 c -1.24446,0.0705 -6.22064,2.98247 -1.53906,0.34362 -1.34888,0.9069 -0.76789,0.53194 -3.48667,2.04594 -0.24456,0.13619 -1.01815,0.46141 -0.7761,0.3208 2.56443,-1.48976 2.91629,-1.87966 2.10964,-1.07215 -0.48636,0.65793 -0.37746,1.58918 -0.39355,2.36212 -0.0274,3.04887 -0.0209,6.09797 -0.0209,9.14693 0.0399,3.23045 -0.16247,6.4655 0.30396,9.67106 0.0581,0.30236 0.11622,0.60472 0.17433,0.90708 0,0 -2.62183,1.39703 -2.62183,1.39703 l 0,0 c -0.0552,-0.30866 -0.11041,-0.61732 -0.16562,-0.92598 -0.44566,-3.22851 -0.24703,-6.47627 -0.28337,-9.72778 -0.008,-3.03897 -0.0206,-6.07793 -0.0454,-9.11682 -0.001,-0.82391 -0.10953,-1.78341 0.28009,-2.53786 0.58383,-0.80972 6.83086,-3.95512 1.68109,-1.06892 -0.16277,0.0912 0.30646,-0.21296 0.45968,-0.31943 2.15215,-1.26771 4.23627,-2.68852 6.70564,-3.24705 0,0 -2.38199,1.82141 -2.38199,1.82141 z"
       inkscape:connector-curvature="0" />
    <rect
       style="fill:#b3b3b3;fill-opacity:0.92694062"
       id="rect4862"
       width="38.385796"
       height="20.203051"
       x="366.68536"
       y="676.58545" />
    <path
       style="fill:#b3b3b3;fill-opacity:0.92694062"
       id="path4868"
       d="m 406.14761,693.38019 c -1.5016,2.76731 -1.65719,5.99951 -1.90731,9.07189 -0.32955,6.19648 0.1014,12.40889 0.3091,18.605 0.44707,5.70245 0.72148,11.43178 1.36856,17.11625 0.44183,2.87716 0.84253,5.75684 1.15032,8.65121 0.1206,1.24425 0.15741,2.49335 0.2256,3.74091 0.8278,5.35937 -7.85082,9.16408 -12.89862,8.01592 -0.62024,-0.0708 -1.24524,-0.0799 -1.86879,-0.0864 -1.40674,-0.0308 -2.8138,-0.0381 -4.22066,-0.0609 -2.7542,-0.0303 -5.50841,-0.0482 -8.26278,-0.0446 -2.39992,0.17879 -4.89417,-0.28988 -7.2537,0.2449 -1.164,0.54031 -2.15319,0.42778 -3.31939,-0.01 -0.33647,-0.12644 -0.59664,-0.31754 -0.79227,-0.61427 -0.10219,-0.33937 -0.26562,-0.66607 -0.30656,-1.01812 -0.0144,-0.12371 0.58154,-0.55 0.64488,-0.67933 0.22642,-0.46229 0.20144,-0.67358 0.26559,-1.2001 -0.1279,-4.19501 -0.46799,-8.37813 -0.72036,-12.56658 -0.70283,-8.46265 -1.03174,-16.94751 -1.28752,-25.43333 -0.16356,-7.16113 -0.30464,-14.3227 -0.50797,-21.48284 0.16823,-2.24396 -0.46892,-4.54628 -0.11858,-6.77794 4.69995,-4.09608 10.40836,-11.42987 13.19151,-5.89582 0.0191,0.0417 0.0381,0.0834 0.0572,0.12509 0,0 -12.34545,6.8407 -12.34545,6.8407 l 0,0 c -0.002,-0.0173 -0.005,-0.0346 -0.007,-0.052 -0.0174,-0.0503 -0.0727,-0.19818 -0.0664,-0.14529 0.0187,0.15835 0.20756,0.49004 0.2327,0.54256 3.90092,-2.40783 7.80184,-4.81566 11.70275,-7.22349 -1.13774,0.97659 -0.43222,5.10317 -0.71113,6.50191 -0.17396,7.24256 -0.23737,14.48873 -0.0564,21.73207 0.22887,8.41113 0.6051,16.82321 1.6474,25.1795 0.37369,4.11333 0.86878,8.21275 1.35359,12.31346 0.0717,0.53693 0.35943,4.13639 -0.83106,1.9937 -0.15417,-0.25442 0.0787,-0.0956 0.25251,-0.0784 0.98038,0.16463 1.85143,-0.28398 2.83072,-0.3444 2.40345,-0.10201 4.81292,0.0404 7.2181,0.003 2.79537,0.003 5.59055,-0.0157 8.38576,-0.0437 1.46145,-0.0208 2.92312,-0.0314 4.38471,-0.0332 0.60952,0.012 1.22795,0.0527 1.83304,-0.0329 4.18318,-2.19845 6.66921,-4.23654 -11.53272,6.59334 -0.0861,0.0512 0.18392,0.0814 0.26895,0.13441 0.11058,0.069 0.18577,0.23816 0.31588,0.23045 0.0834,-0.005 0.0106,-0.16673 0.0159,-0.2501 0.0586,-1.24695 0.0415,-2.49615 -0.005,-3.74326 -0.12459,-2.94321 -0.48512,-5.86648 -0.79632,-8.79428 -0.5133,-5.77249 -0.6025,-11.58007 -1.09792,-17.35588 -0.21773,-6.18695 -0.73724,-12.37158 -0.67353,-18.56113 0.12416,-3.13097 0.14751,-6.35463 1.19537,-9.34512 0,0 12.73773,-5.76294 12.73773,-5.76294 z"
       inkscape:connector-curvature="0" />
    <path
       style="fill:#1a1a1a;fill-opacity:0.92694062"
       id="path4886"
       d="m 384.13417,750.80236 c -0.17514,-1.30527 -0.51112,-2.57382 -0.82577,-3.84952 -0.37227,-1.32248 -0.79559,-2.6149 -1.39934,-3.85025 -0.5084,-1.08191 -1.18158,-2.08677 -1.89982,-3.04135 -0.36017,-0.59677 -0.62082,-1.23838 -1.02723,-1.80627 -0.24955,-0.33805 -0.26699,-0.69058 -0.64398,-0.89778 -0.53062,0.12548 -0.91952,0.58284 -1.44133,0.86922 19.53662,-11.24481 0.98048,-0.57106 -0.95871,0.5744 -2.59032,1.53008 10.45486,-5.95823 7.8197,-4.50673 -3.0297,1.66883 -5.9994,3.44438 -9.00354,5.15882 -2.60839,1.48859 5.20108,-3.00473 7.81631,-4.48127 0.20193,-0.11401 -0.38289,0.26167 -0.57434,0.3925 -1.19734,0.90804 -2.31364,1.90183 -3.32159,3.01578 -1.121,1.23843 -1.78614,2.73806 -2.2917,4.30932 -0.54122,2.19065 -0.90952,4.41266 -1.14643,6.65492 -0.0255,1.80588 0.092,3.63509 0.55978,5.38448 0.16188,0.70183 0.37747,1.37815 0.69444,2.02404 0,0 -8.57963,4.85618 -8.57963,4.85618 l 0,0 c -0.32404,-0.72076 -0.58549,-1.44305 -0.71696,-2.22715 -0.44466,-1.88144 -0.59997,-3.80324 -0.60269,-5.73697 0.2001,-2.2833 0.6051,-4.52798 1.01762,-6.78044 0.39502,-1.66577 0.98873,-3.31008 2.07791,-4.65652 0.91523,-1.23126 2.03363,-2.25007 3.21577,-3.21539 3.21194,-2.7556 -0.46694,0.34445 9.48249,-5.67494 2.56172,-1.54983 -10.36426,6.00095 -7.77146,4.50371 2.99054,-1.72691 5.96717,-3.47795 8.96467,-5.19274 0.33577,-0.19209 -23.12149,13.41583 0.99901,-0.59053 0.74036,-0.40091 1.48334,-0.5481 2.17944,0.022 0.36224,0.34669 0.57733,0.73557 0.78238,1.17915 0.36921,0.58744 0.66606,1.19246 0.95904,1.81941 0.68306,1.03897 1.4113,2.06095 1.92867,3.19562 0.6564,1.29409 1.05338,2.66995 1.4928,4.04843 0.30519,1.26688 0.66552,2.51446 0.91813,3.79311 0,0 -8.70364,4.70674 -8.70364,4.70674 z"
       inkscape:connector-curvature="0" />
    <path
       style="fill:#1a1a1a;fill-opacity:0.92694062"
       id="path4888"
       d="m 395.12385,757.60002 c -0.0772,1.67102 -0.0853,3.34498 -0.0884,5.0176 0.0153,1.70004 0.004,3.40066 0.0424,5.1004 0.0245,0.71675 0.0278,1.43372 0.0692,2.14986 0.0267,0.39251 -0.007,-0.093 0.0128,0.17575 0,0 -8.89127,4.53032 -8.89127,4.53032 l 0,0 c 0.008,-0.11185 0.004,-0.0489 0.0128,-0.18879 0.0405,-0.7397 0.0452,-1.48014 0.0692,-2.22041 0.0376,-1.71416 0.0274,-3.42917 0.0424,-5.14362 -0.003,-1.64258 -0.01,-3.28665 -0.0884,-4.92754 0,0 8.81912,-4.49357 8.81912,-4.49357 z"
       inkscape:connector-curvature="0" />
    <text
       xml:space="preserve"
       style="font-size:14px;font-style:normal;font-weight:normal;line-height:125%;letter-spacing:0px;word-spacing:0px;fill:#000000;fill-opacity:1;stroke:none;font-family:Sans"
       x="139.40106"
       y="842.25043"
       id="text4908"
       sodipodi:linespacing="125%"><tspan
         sodipodi:role="line"
         id="tspan4910"
         x="139.40106"
         y="842.25043">Wordlock Bike Lock Woven Thru (for security)</tspan></text>
    <text
       xml:space="preserve"
       style="font-size:16px;font-style:normal;font-weight:normal;line-height:125%;letter-spacing:0px;word-spacing:0px;fill:#000000;fill-opacity:1;stroke:none;font-family:Sans"
       x="372.36816"
       y="925.21936"
       id="text4912"
       sodipodi:linespacing="125%"><tspan
         sodipodi:role="line"
         x="378.09863"
         y="925.21936"
         style="font-size:36px;text-align:center;text-anchor:middle"
         id="tspan4918">Now go out, make your box, and </tspan><tspan
         sodipodi:role="line"
         x="378.09863"
         y="970.21936"
         style="font-size:36px;text-align:center;text-anchor:middle"
         id="tspan4924">speak your piece! </tspan></text>
    <path
       style="fill:#1a1a1a;fill-opacity:0.92694062"
       id="path3389"
       d="m 517.20632,556.2696 c 2.10567,-3.843 5.25383,-6.91131 8.40833,-9.88778 4.46904,-3.83223 9.71057,-6.68286 15.07642,-9.0556 2.81964,-1.10497 5.82595,-1.99809 8.87974,-1.8747 1.97789,0.0302 3.339,1.1315 4.67622,2.43207 0.39933,0.30528 0.65546,0.66338 0.85229,1.11276 0,0 -2.63352,1.47388 -2.63352,1.47388 l 0,0 c -0.16024,-0.424 -0.412,-0.72746 -0.77305,-1.01687 -1.29513,-1.26522 -2.62444,-2.25933 -4.53823,-2.25605 -3.02396,-0.0366 -5.98173,0.82192 -8.76482,1.95326 -3.90786,1.75931 -6.3926,2.90101 -10.07483,6.12235 -3.13322,2.94143 -6.28558,5.95605 -8.37969,9.76206 0,0 -2.72886,1.23462 -2.72886,1.23462 z"
       inkscape:connector-curvature="0" />
    <path
       style="fill:#1a1a1a;fill-opacity:0.92694062"
       id="path3393"
       d="m 203.47507,576.72785 c 0.47207,2.77875 1.76377,5.26721 3.75401,7.24416 2.64096,1.84489 4.98094,1.11827 7.69288,-0.0885 0.55321,-0.28006 1.12024,-0.53435 1.65963,-0.84017 0.27874,-0.15804 -1.10879,0.61598 -0.87596,0.39585 0.49589,-0.46881 1.13017,-0.76539 1.68584,-1.16152 1.61078,-1.14828 3.17784,-2.33832 4.81942,-3.44396 1.33237,-0.73026 2.66474,-1.46053 3.99712,-2.1908 0,0 -2.3112,1.84775 -2.3112,1.84775 l 0,0 c 0.35318,-0.24385 0.70635,-0.4877 1.05952,-0.73155 -4.08133,2.70745 -7.82095,5.97326 -12.35342,7.95878 -2.83587,1.19793 -5.24328,1.76424 -7.91096,-0.19215 -2.00738,-2.04422 -3.32906,-4.57334 -3.86433,-7.40126 0,0 2.64745,-1.39661 2.64745,-1.39661 z"
       inkscape:connector-curvature="0" />
  </g>
</svg>
